<?xml version="1.0" standalone="no"?>
<!DOCTYPE svg SYSTEM "file:///etc/passwd"
 "http://www.w3.org/TR/2001/REC-SVG-20010904/DTD/svg10.dtd">

<svg version="1.0" xmlns="http://www.w3.org/2000/svg"
 width="300.000000pt" height="132.000000pt" viewBox="0 0 300.000000 132.000000"
 preserveAspectRatio="xMidYMid meet">
<metadata>
  <text x="10" y="20">Data &svg;</text> <!-- Llamada a la entidad -->
</metadata>


 
<g transform="translate(0.000000,132.000000) scale(0.100000,-0.100000)"
fill="#000000" stroke="none">
<path d="M541 1240 c-27 -20 -51 -50 -69 -87 -26 -53 -30 -57 -92 -79 -61 -22
-67 -23 -98 -8 -37 17 -52 12 -45 -16 3 -11 0 -27 -7 -35 -7 -8 -10 -25 -7
-37 4 -13 11 -74 17 -136 13 -137 46 -247 99 -327 l40 -60 -61 -57 c-80 -75
-71 -84 11 -11 48 43 65 53 74 44 8 -8 9 -14 1 -19 -5 -4 -40 -29 -77 -55 -37
-27 -74 -47 -83 -45 -17 3 -9 18 65 110 19 24 7 14 -25 -21 -75 -82 -117 -138
-107 -144 12 -7 164 80 199 114 30 29 33 30 60 16 30 -15 123 -44 159 -49 25
-4 24 -25 -5 -100 -36 -93 -11 -113 45 -37 l30 40 17 -21 c10 -12 18 -33 18
-47 0 -15 5 -23 13 -20 8 3 11 30 10 94 l-2 91 27 5 c59 12 136 38 146 48 8 9
8 10 -1 5 -7 -4 1 21 17 56 32 67 38 98 18 98 -9 0 -9 3 0 12 10 10 15 10 22
-2 12 -19 3 -54 -26 -109 -28 -51 -28 -51 -10 -51 8 0 16 -3 18 -8 12 -27 199
-147 211 -135 13 12 -40 92 -99 149 l-63 61 39 81 c33 68 40 91 40 142 0 35 9
87 21 122 20 60 21 111 7 243 -3 28 -1 30 27 27 24 -2 33 3 46 25 15 26 15 29
-1 44 -36 34 -80 -14 -47 -51 10 -12 9 -12 -3 -3 -10 8 -21 9 -30 3 -8 -6 -11
-10 -7 -10 12 0 -16 -26 -30 -28 -30 -4 -42 -2 -114 24 -73 27 -77 30 -104 82
-24 45 -37 59 -79 78 -76 35 -151 33 -205 -6z m56 -72 c-27 -67 -39 -147 -27
-188 l7 -25 6 25 c3 14 8 48 10 75 2 28 14 78 27 113 25 69 33 73 99 46 32
-12 49 -32 99 -110 36 -55 68 -94 77 -94 25 0 -1 -23 -50 -44 -22 -10 -56 -25
-75 -34 -19 -8 -37 -16 -40 -17 -3 -1 -14 -5 -25 -9 -11 -4 -32 -12 -46 -18
-37 -13 -107 -13 -157 1 -39 11 -43 15 -40 39 3 23 8 27 33 26 17 0 39 -4 50
-9 19 -7 18 -6 -2 16 -15 15 -34 23 -56 23 l-33 0 11 61 c7 33 16 59 21 58 5
-1 18 -5 29 -9 18 -6 17 -4 -4 20 l-25 26 35 36 c31 33 89 68 98 59 2 -3 -8
-33 -22 -67z m343 -104 c53 -17 54 -18 25 -25 -64 -14 -80 -11 -92 22 -9 23
-9 29 0 25 7 -3 37 -13 67 -22z m-500 -16 c0 -67 -13 -140 -26 -145 -7 -2 -40
8 -74 23 -65 29 -83 25 -73 -17 6 -22 88 -85 130 -99 38 -14 59 -62 55 -127
-2 -17 -8 -23 -27 -23 -14 0 -25 -4 -25 -9 0 -4 -15 -12 -32 -17 -23 -7 -34
-17 -36 -32 -12 -81 -59 75 -77 252 -11 110 -12 143 -2 152 7 7 41 21 77 33
36 12 72 26 80 31 25 16 30 12 30 -22z m595 -86 c-17 -31 -123 -119 -147 -121
-17 -2 -6 16 20 31 43 26 104 90 115 121 7 21 12 26 21 17 8 -8 5 -21 -9 -48z
m-31 27 c-69 -77 -220 -162 -319 -180 -109 -20 -301 25 -352 84 -17 20 -17 20
2 13 57 -22 214 -56 257 -56 53 0 185 47 333 119 93 46 105 49 79 20z m76 -69
c-5 -36 -13 -83 -19 -105 l-9 -40 -2 45 -2 45 -12 -50 c-7 -27 -15 -77 -19
-110 -5 -56 -5 -58 8 -30 l13 30 1 -30 c0 -16 -6 -43 -14 -60 -13 -29 -14 -29
-20 -8 -4 13 -18 24 -36 28 -16 4 -31 11 -34 16 -4 5 -14 9 -24 9 -26 0 -35
52 -16 98 9 20 13 42 11 49 -3 7 5 18 17 24 54 28 125 90 141 124 10 20 19 35
21 33 2 -2 0 -33 -5 -68z m-190 -123 c0 -7 -7 -23 -16 -36 -11 -16 -14 -34
-10 -60 5 -33 1 -43 -29 -78 -30 -36 -32 -41 -16 -46 10 -2 23 3 29 14 11 18
14 18 47 2 34 -16 35 -17 16 -37 -10 -12 -21 -28 -25 -36 -4 -8 2 -4 14 10
l22 25 -18 -32 c-10 -18 -21 -30 -26 -27 -4 3 -5 -3 -1 -12 4 -10 2 -15 -4
-11 -6 4 -9 -13 -9 -43 1 -48 -13 -73 -15 -27 -1 16 -2 18 -6 5 -2 -10 -10
-18 -16 -18 -19 1 -50 28 -43 38 3 6 -4 17 -17 25 -20 13 -26 13 -42 1 -24
-17 -82 -17 -114 0 -14 8 -30 32 -40 62 -12 36 -22 50 -41 55 -18 5 -20 7 -6
8 15 1 12 8 -18 41 -35 39 -47 70 -26 70 7 0 7 6 1 19 -6 10 -8 21 -5 24 3 3
-2 18 -12 33 l-18 27 29 -6 c17 -4 80 -10 140 -13 90 -4 122 -2 180 14 88 24
95 25 95 9z m-430 -168 c0 -6 -9 -9 -20 -6 -11 3 -18 2 -15 -3 7 -12 -41 -40
-51 -30 -6 6 -8 -7 -6 -33 3 -39 2 -41 -13 -23 -18 23 -18 31 -5 57 18 32 110
64 110 38z m473 -1 c12 -6 29 -14 37 -18 22 -10 31 -70 14 -94 -14 -20 -14
-20 -14 2 0 12 5 22 10 22 20 0 -44 60 -77 72 -18 7 -33 16 -33 20 0 12 37 10
63 -4z m-425 -70 c18 -27 32 -63 37 -95 6 -46 5 -53 -15 -63 -47 -25 -68 -22
-95 14 -43 57 -70 172 -34 151 5 -4 24 -25 40 -47 36 -51 38 -42 3 12 -22 33
-24 43 -14 55 22 26 48 17 78 -27z m506 -146 c61 -65 107 -124 102 -130 -12
-12 -186 114 -186 134 0 22 14 16 51 -22 18 -20 43 -40 54 -46 11 -5 -4 14
-33 42 -29 28 -50 56 -47 61 9 14 11 13 59 -39z m-254 3 c0 -7 6 -15 13 -18 8
-3 6 -10 -8 -21 -23 -18 -34 -19 -54 -7 -11 7 -9 14 9 39 23 31 40 34 40 7z
m-170 -7 c0 -10 2 -10 9 0 6 10 10 10 21 -2 17 -22 5 -50 -18 -40 -9 4 -27 7
-39 7 -22 -1 -22 0 -5 23 19 26 32 31 32 12z m70 -50 c0 -10 3 -9 9 1 5 7 14
10 20 7 16 -10 14 -46 -3 -46 -8 0 -21 -3 -30 -6 -18 -7 -31 18 -22 41 7 18
26 20 26 3z m-7 -98 c-5 -20 -43 -49 -43 -33 0 13 30 53 40 53 4 0 6 -9 3 -20z"/>
<path d="M338 1017 c-38 -16 -68 -36 -68 -43 0 -15 31 -5 78 24 12 8 22 11 22
8 0 -4 10 2 22 14 12 11 20 21 17 23 -2 2 -34 -9 -71 -26z"/>
<path d="M280 812 c0 -53 29 -184 40 -177 4 2 6 18 4 35 -16 137 -43 225 -44
142z"/>
<path d="M496 744 c11 -30 46 -64 65 -64 10 0 21 -4 24 -10 3 -5 -3 -10 -15
-10 -20 0 -43 -36 -33 -52 8 -15 21 -8 26 15 9 33 78 60 137 52 72 -10 140 26
140 75 0 15 -35 4 -125 -39 -5 -2 -2 8 8 22 23 36 8 34 -28 -3 -28 -29 -29
-29 -42 -10 -8 11 -23 25 -34 31 -19 9 -19 9 -10 -10 16 -29 14 -30 -26 -10
-21 10 -50 21 -66 25 -24 5 -26 4 -21 -12z"/>
<path d="M753 653 c9 -2 18 -9 18 -14 1 -5 2 -15 3 -21 1 -7 -2 -19 -7 -25
-15 -20 8 -16 25 5 24 26 6 62 -29 61 -17 -1 -21 -3 -10 -6z"/>
<path d="M644 599 c-30 -10 -47 -37 -47 -69 0 -43 28 -70 73 -70 45 0 73 27
73 70 0 51 -51 87 -99 69z m54 -25 c31 -22 30 -69 -4 -90 -24 -16 -27 -16 -52
3 -24 18 -29 35 -23 76 1 7 36 24 51 26 3 1 16 -6 28 -15z"/>
<path d="M641 547 c-24 -29 17 -70 46 -46 8 7 13 22 11 33 -4 25 -40 33 -57
13z"/>
<path d="M774 529 c-9 -21 -14 -46 -10 -55 8 -21 16 -13 32 29 6 17 14 39 18
48 5 10 2 16 -8 16 -8 0 -22 -17 -32 -38z"/>
<path d="M400 534 c0 -25 57 -144 68 -144 5 0 9 18 8 39 0 22 -3 35 -7 30 -3
-5 -14 8 -24 31 -22 49 -45 71 -45 44z"/>
<path d="M152 1158 c-7 -7 -12 -21 -12 -33 0 -31 19 -45 60 -45 45 0 52 6 37
34 -31 55 -59 70 -85 44z m42 -33 c11 0 21 -6 24 -13 3 -10 -4 -13 -24 -10
-20 2 -30 9 -32 23 -2 12 0 16 5 10 4 -6 17 -11 27 -10z"/>
<path d="M1330 851 l0 -211 68 0 c38 0 71 2 73 4 2 2 2 63 -1 136 -3 77 -1
135 5 141 5 6 5 9 -2 9 -6 0 -13 -5 -15 -11 -4 -11 -108 87 -108 101 0 4 47 7
105 6 61 0 105 3 105 8 0 6 5 5 12 -2 9 -9 2 -23 -35 -60 -26 -26 -47 -51 -47
-55 0 -4 86 -7 191 -6 233 2 224 8 220 -141 -1 -53 3 -109 9 -125 6 -15 7 -31
3 -34 -4 -3 -8 -19 -8 -36 0 -31 -30 -75 -51 -75 -12 0 -126 -112 -120 -117 2
-2 25 19 53 47 28 27 57 50 65 50 7 0 32 -19 53 -41 22 -23 35 -39 28 -35 -6
3 -14 2 -18 -4 -4 -6 -10 -8 -15 -5 -5 3 -12 1 -15 -5 -4 -6 -32 -10 -63 -8
-31 1 -61 0 -67 -4 -5 -3 -23 -4 -40 -1 -58 9 -217 4 -231 -8 -32 -26 -11 9
34 56 l47 50 -52 -50 -53 -49 -47 44 -48 45 44 -47 c39 -42 43 -49 31 -65 -12
-15 -12 -16 0 -5 22 19 35 14 16 -7 -14 -16 -21 -17 -31 -8 -7 7 -11 15 -9 19
2 4 0 9 -6 13 -18 11 -50 83 -44 100 4 10 10 12 18 6 10 -9 105 -8 176 1 14 2
28 -1 32 -7 5 -6 8 -4 8 5 0 8 25 -9 57 -40 55 -53 55 -53 15 -8 -42 48 -53
66 -30 52 7 -5 42 -9 78 -10 61 -1 100 8 100 24 0 4 -110 8 -245 10 l-245 3 0
-35 c0 -26 18 -65 68 -145 37 -61 70 -111 75 -111 4 0 6 32 5 70 l-3 71 201 0
c196 0 203 1 253 25 34 18 62 41 84 72 l32 47 3 189 c4 210 -4 251 -58 306
-62 64 -68 65 -377 68 l-283 3 0 -210z m389 176 c56 -1 101 1 101 4 0 3 10 5
23 3 42 -5 92 -32 129 -71 l38 -39 -46 -44 c-38 -37 -46 -41 -41 -22 4 15 -3
32 -20 53 -24 28 -31 30 -75 27 -26 -1 -48 -1 -48 3 0 3 15 20 34 38 24 23 40
32 52 27 14 -5 15 -4 4 9 -12 14 -19 10 -64 -33 -47 -45 -54 -49 -94 -46 -31
2 -41 0 -35 -9 5 -9 4 -9 -8 0 -21 17 -124 19 -143 3 -33 -27 -14 8 24 45 l40
39 42 -39 42 -40 -42 47 c-45 51 -50 61 -28 52 8 -3 59 -6 115 -7z m-268 -140
c6 -9 6 -23 2 -30 -10 -16 -12 -30 -14 -114 -2 -59 -4 -70 -17 -65 -9 3 -13 1
-9 -4 4 -6 -6 -9 -23 -6 -17 2 -27 8 -24 14 3 5 -2 21 -11 36 -16 24 -13 23
19 -7 44 -42 48 -36 6 9 -16 18 -30 36 -30 42 0 5 23 35 52 66 l52 57 -58 -55
c-34 -32 -53 -45 -46 -32 7 14 10 56 8 107 l-3 84 43 -42 c24 -23 48 -50 53
-60z m564 13 c-4 -6 -1 -18 7 -27 9 -12 9 -15 1 -9 -13 7 -18 -5 -8 -16 3 -3
7 -59 8 -124 1 -65 6 -125 10 -132 5 -7 2 -14 -7 -18 -9 -3 -13 -10 -10 -15 9
-14 -17 -85 -42 -114 -26 -30 -49 -25 -77 18 -14 22 -14 24 4 35 10 7 19 20
19 28 0 9 8 23 18 30 16 13 16 13 0 14 -10 0 -18 4 -18 9 0 5 11 8 24 7 20 -3
25 2 28 26 3 16 1 31 -4 34 -4 3 -8 -4 -8 -15 0 -11 -5 -23 -11 -27 -8 -5 -10
1 -7 20 4 18 1 26 -8 26 -8 0 -14 5 -14 10 0 6 3 10 8 10 8 0 7 139 -2 148 -7
6 73 92 87 92 4 0 5 -5 2 -10z"/>
<path d="M1993 618 c1 -18 5 -32 10 -30 4 1 7 4 7 7 0 3 0 16 0 30 0 14 -4 25
-9 25 -5 0 -9 -15 -8 -32z"/>
<path d="M2389 999 c-30 -34 -61 -69 -70 -78 -9 -9 -40 -45 -70 -81 l-54 -65
-58 3 -57 3 0 -76 0 -75 59 0 c57 0 60 -1 82 -37 13 -21 26 -43 29 -48 3 -6
52 -86 109 -178 l103 -167 84 0 c46 0 84 2 84 5 0 3 -8 18 -19 33 -22 33 -57
88 -186 295 -61 100 -101 155 -107 149 -11 -11 12 -60 53 -113 26 -33 27 -37
11 -52 -15 -16 -12 -21 48 -82 l64 -65 -34 -35 -34 -35 -21 43 c-29 57 -65
114 -65 102 0 -5 -16 22 -34 60 -19 39 -46 83 -61 97 -15 15 -24 31 -21 36 3
5 -17 33 -44 61 -52 54 -61 68 -34 53 28 -15 61 -1 102 43 l40 43 30 -31 30
-32 -24 -24 c-12 -14 -21 -28 -18 -33 3 -4 -12 -26 -34 -49 l-38 -41 50 -48
c28 -27 52 -47 54 -45 3 2 -18 25 -44 50 l-49 47 38 32 c20 18 37 37 37 43 0
5 10 18 23 29 12 11 49 51 82 88 33 38 71 80 84 95 68 76 88 98 105 119 l19
22 -95 0 -96 0 -53 -61z m161 16 c0 -6 -12 -22 -26 -36 -14 -13 -30 -33 -34
-44 -7 -18 -10 -17 -45 18 -36 36 -37 39 -19 51 36 25 124 33 124 11z m-93
-110 c-7 -7 -32 -36 -57 -64 l-44 -51 -32 31 -32 31 54 57 c29 31 54 60 54 65
0 6 15 -5 34 -23 27 -26 32 -36 23 -46z m-241 -263 c-2 -2 -14 3 -25 10 -16 9
-24 10 -29 2 -5 -8 -15 -8 -32 -2 -14 6 -20 12 -13 15 10 4 10 8 -1 18 -8 8
-11 25 -8 40 5 27 5 26 58 -26 29 -29 52 -55 50 -57z m199 -143 c4 -11 21 -37
38 -57 36 -42 9 -25 -41 25 -18 19 -30 38 -27 43 10 16 23 11 30 -11z m104
-152 c6 -8 8 -17 5 -20 -3 -3 6 -22 21 -41 15 -19 24 -39 21 -44 -4 -7 -57 -9
-86 -3 -3 1 -14 15 -24 32 -18 31 -18 31 10 60 31 33 37 34 53 16z"/>
</g>
</svg>
